<?xml version="1.0" encoding="UTF-8" standalone="no"?>
<!DOCTYPE svg PUBLIC "-//W3C//DTD SVG 1.1//EN"
 "http://www.w3.org/Graphics/SVG/1.1/DTD/svg11.dtd">
<!-- Generated by graphviz version 2.44.0 (0)
 -->
<!-- Title: Promptless Process Pages: 1 -->
<svg width="720pt" height="47pt"
 viewBox="0.00 0.00 720.00 47.10" xmlns="http://www.w3.org/2000/svg" xmlns:xlink="http://www.w3.org/1999/xlink">
<g id="graph0" class="graph" transform="scale(0.52 0.52) rotate(0) translate(4 85.87)">
<title>Promptless Process</title>
<polygon fill="white" stroke="transparent" points="-4,4 -4,-85.87 1369.68,-85.87 1369.68,4 -4,4"/>
<!-- A -->
<g id="node1" class="node">
<title>A</title>
<polygon fill="none" stroke="black" points="98,-45.87 0,-45.87 0,-7.87 98,-7.87 98,-45.87"/>
<text text-anchor="middle" x="49" y="-30.67" font-family="Times-Roman" font-size="14.00">Extract Text</text>
<text text-anchor="middle" x="49" y="-15.67" font-family="Times-Roman" font-size="14.00">(PDF)</text>
</g>
<!-- B -->
<g id="node2" class="node">
<title>B</title>
<polygon fill="none" stroke="black" points="368,-45.87 234,-45.87 234,-7.87 368,-7.87 368,-45.87"/>
<text text-anchor="middle" x="301" y="-30.67" font-family="Times-Roman" font-size="14.00">Generate Prompt</text>
<text text-anchor="middle" x="301" y="-15.67" font-family="Times-Roman" font-size="14.00">(M1)</text>
</g>
<!-- A&#45;&gt;B -->
<g id="edge1" class="edge">
<title>A&#45;&gt;B</title>
<path fill="none" stroke="black" d="M98.2,-26.87C133.78,-26.87 182.91,-26.87 223.79,-26.87"/>
<polygon fill="black" stroke="black" points="223.99,-30.37 233.99,-26.87 223.99,-23.37 223.99,-30.37"/>
<text text-anchor="middle" x="166" y="-30.67" font-family="Times-Roman" font-size="14.00">Text Extracted</text>
</g>
<!-- C -->
<g id="node3" class="node">
<title>C</title>
<polygon fill="none" stroke="black" points="659,-81.87 556,-81.87 556,-43.87 659,-43.87 659,-81.87"/>
<text text-anchor="middle" x="607.5" y="-66.67" font-family="Times-Roman" font-size="14.00">Extract Data</text>
<text text-anchor="middle" x="607.5" y="-51.67" font-family="Times-Roman" font-size="14.00">(M2)</text>
</g>
<!-- B&#45;&gt;C -->
<g id="edge2" class="edge">
<title>B&#45;&gt;C</title>
<path fill="none" stroke="black" d="M368.07,-34.68C420.87,-40.92 494.3,-49.6 545.67,-55.68"/>
<polygon fill="black" stroke="black" points="545.29,-59.16 555.64,-56.86 546.12,-52.21 545.29,-59.16"/>
<text text-anchor="middle" x="449.5" y="-54.67" font-family="Times-Roman" font-size="14.00">Prompt Generated</text>
</g>
<!-- D -->
<g id="node4" class="node">
<title>D</title>
<polygon fill="none" stroke="black" points="1044,-45.87 892,-45.87 892,-7.87 1044,-7.87 1044,-45.87"/>
<text text-anchor="middle" x="968" y="-30.67" font-family="Times-Roman" font-size="14.00">Iterate Until</text>
<text text-anchor="middle" x="968" y="-15.67" font-family="Times-Roman" font-size="14.00">Accuracy Threshold</text>
</g>
<!-- C&#45;&gt;D -->
<g id="edge3" class="edge">
<title>C&#45;&gt;D</title>
<path fill="none" stroke="black" d="M659.1,-57.79C716.96,-51.98 812.61,-42.37 881.96,-35.41"/>
<polygon fill="black" stroke="black" points="882.4,-38.88 892,-34.4 881.7,-31.92 882.4,-38.88"/>
<text text-anchor="middle" x="788" y="-56.67" font-family="Times-Roman" font-size="14.00">Data Extracted &amp; Scored</text>
</g>
<!-- D&#45;&gt;B -->
<g id="edge4" class="edge">
<title>D&#45;&gt;B</title>
<path fill="none" stroke="black" d="M891.78,-24.23C804.88,-21.52 657.6,-17.94 531,-19.87 480.08,-20.65 422.82,-22.4 378.29,-23.95"/>
<polygon fill="black" stroke="black" points="378,-20.46 368.13,-24.31 378.24,-27.46 378,-20.46"/>
<text text-anchor="middle" x="607.5" y="-23.67" font-family="Times-Roman" font-size="14.00">Update Prompt (Loop)</text>
</g>
<!-- E -->
<g id="node5" class="node">
<title>E</title>
<ellipse fill="none" stroke="black" cx="1272.34" cy="-26.87" rx="93.18" ry="26.74"/>
<text text-anchor="middle" x="1272.34" y="-30.67" font-family="Times-Roman" font-size="14.00">Visualize Results</text>
<text text-anchor="middle" x="1272.34" y="-15.67" font-family="Times-Roman" font-size="14.00">(Browser)</text>
</g>
<!-- D&#45;&gt;E -->
<g id="edge5" class="edge">
<title>D&#45;&gt;E</title>
<path fill="none" stroke="black" d="M1044.12,-26.87C1081.69,-26.87 1127.72,-26.87 1168.51,-26.87"/>
<polygon fill="black" stroke="black" points="1168.76,-30.37 1178.76,-26.87 1168.76,-23.37 1168.76,-30.37"/>
<text text-anchor="middle" x="1111.5" y="-30.67" font-family="Times-Roman" font-size="14.00">Threshold Met</text>
</g>
</g>
</svg>
